<?xml version="1.0" encoding="UTF-8"?>
<!DOCTYPE svg PUBLIC "-//W3C//DTD SVG 1.1//EN" "http://www.w3.org/Graphics/SVG/1.1/DTD/svg11.dtd">
<svg xmlns="http://www.w3.org/2000/svg" version="1.1" width="677px" height="369px" style="shape-rendering:geometricPrecision; text-rendering:geometricPrecision; image-rendering:optimizeQuality; fill-rule:evenodd; clip-rule:evenodd" xmlns:xlink="http://www.w3.org/1999/xlink">
<g><path style="opacity:0.224" fill="#979695" d="M 335.5,-0.5 C 336.5,-0.5 337.5,-0.5 338.5,-0.5C 339.11,0.391047 339.443,1.39105 339.5,2.5C 338.542,2.0472 337.708,1.38053 337,0.5C 336.292,1.38053 335.458,2.0472 334.5,2.5C 334.557,1.39105 334.89,0.391047 335.5,-0.5 Z"/></g>
<g><path style="opacity:0.998" fill="#f7f7f5" d="M 339.5,2.5 C 344.724,11.272 349.724,20.272 354.5,29.5C 354.229,31.3797 354.896,32.713 356.5,33.5C 370.858,59.2217 384.858,85.2217 398.5,111.5C 398.229,113.38 398.896,114.713 400.5,115.5C 410.243,131.694 419.243,148.361 427.5,165.5C 427.427,167.027 428.094,168.027 429.5,168.5C 432.024,172.063 433.691,176.063 434.5,180.5C 426.182,183.774 417.682,186.774 409,189.5C 407.739,189.241 406.739,188.574 406,187.5C 388.217,155.535 371.05,123.202 354.5,90.5C 354.13,87.733 352.796,85.733 350.5,84.5C 346.217,76.9326 342.217,69.2659 338.5,61.5C 338.719,60.325 338.386,59.325 337.5,58.5C 336.702,58.9569 336.369,59.6236 336.5,60.5C 324.064,84.3226 311.064,107.989 297.5,131.5C 295.952,131.821 295.285,132.821 295.5,134.5C 279.162,164.798 262.496,194.798 245.5,224.5C 243.952,224.821 243.285,225.821 243.5,227.5C 241.258,230.979 239.258,234.646 237.5,238.5C 235.952,238.821 235.285,239.821 235.5,241.5C 234.972,242.721 234.305,243.887 233.5,245C 219.961,250.448 206.294,255.281 192.5,259.5C 193.436,254.879 195.603,250.879 199,247.5C 209.26,228.889 219.427,210.223 229.5,191.5C 231.048,191.179 231.715,190.179 231.5,188.5C 233.5,184.833 235.5,181.167 237.5,177.5C 239.369,175.966 240.702,173.966 241.5,171.5C 249.79,154.571 258.79,138.238 268.5,122.5C 269.906,122.027 270.573,121.027 270.5,119.5C 271.399,116.605 272.733,113.938 274.5,111.5C 276.326,109.853 277.66,107.853 278.5,105.5C 283.72,94.0581 289.72,83.0581 296.5,72.5C 298.104,71.713 298.771,70.3797 298.5,68.5C 305.917,54.6638 313.583,40.9971 321.5,27.5C 323.346,25.9699 324.346,23.9699 324.5,21.5C 325.6,20.3951 326.267,19.0618 326.5,17.5C 327.906,17.0269 328.573,16.0269 328.5,14.5C 330.101,10.252 332.101,6.25198 334.5,2.5C 335.458,2.0472 336.292,1.38053 337,0.5C 337.708,1.38053 338.542,2.0472 339.5,2.5 Z"/></g>
<g><path style="opacity:0.247" fill="#585b58" d="M 328.5,14.5 C 328.573,16.0269 327.906,17.0269 326.5,17.5C 326.427,15.9731 327.094,14.9731 328.5,14.5 Z"/></g>
<g><path style="opacity:0.373" fill="#868684" d="M 324.5,21.5 C 324.346,23.9699 323.346,25.9699 321.5,27.5C 321.654,25.0301 322.654,23.0301 324.5,21.5 Z"/></g>
<g><path style="opacity:0.063" fill="#494941" d="M 354.5,29.5 C 355.674,30.5137 356.34,31.847 356.5,33.5C 354.896,32.713 354.229,31.3797 354.5,29.5 Z"/></g>
<g><path style="opacity:0.188" fill="#737368" d="M 338.5,61.5 C 337.833,61.1667 337.167,60.8333 336.5,60.5C 336.369,59.6236 336.702,58.9569 337.5,58.5C 338.386,59.325 338.719,60.325 338.5,61.5 Z"/></g>
<g><path style="opacity:0.318" fill="#696966" d="M 298.5,68.5 C 298.771,70.3797 298.104,71.713 296.5,72.5C 296.66,70.847 297.326,69.5137 298.5,68.5 Z"/></g>
<g><path style="opacity:0.604" fill="#979796" d="M 350.5,84.5 C 352.796,85.733 354.13,87.733 354.5,90.5C 352.684,88.8816 351.351,86.8816 350.5,84.5 Z"/></g>
<g><path style="opacity:0.361" fill="#959694" d="M 278.5,105.5 C 277.66,107.853 276.326,109.853 274.5,111.5C 274.845,108.802 276.178,106.802 278.5,105.5 Z"/></g>
<g><path style="opacity:0.682" fill="#943330" d="M 676.5,111.5 C 676.5,112.833 676.5,114.167 676.5,115.5C 675.504,115.586 674.671,115.252 674,114.5C 672.798,111.226 671.798,107.893 671,104.5C 670.107,103.919 669.107,103.585 668,103.5C 659.875,105.542 652.041,108.375 644.5,112C 642.866,112.494 641.199,112.66 639.5,112.5C 649.477,108.226 659.643,104.226 670,100.5C 672.193,104.23 674.36,107.897 676.5,111.5 Z"/></g>
<g><path style="opacity:0.145" fill="#626262" d="M 398.5,111.5 C 399.674,112.514 400.34,113.847 400.5,115.5C 398.896,114.713 398.229,113.38 398.5,111.5 Z"/></g>
<g><path style="opacity:0.502" fill="#933833" d="M 639.5,112.5 C 633.861,115.605 627.861,117.938 621.5,119.5C 627.121,116.4 633.121,114.067 639.5,112.5 Z"/></g>
<g><path style="opacity:0.11" fill="#646463" d="M 270.5,119.5 C 270.573,121.027 269.906,122.027 268.5,122.5C 268.427,120.973 269.094,119.973 270.5,119.5 Z"/></g>
<g><path style="opacity:0.706" fill="#943631" d="M 617.5,120.5 C 616.942,121.79 615.942,122.623 614.5,123C 609.653,125.095 604.653,126.595 599.5,127.5C 605.21,124.654 611.21,122.32 617.5,120.5 Z"/></g>
<g><path style="opacity:0.02" fill="#a03b3a" d="M 673.5,120.5 C 666.624,123.014 659.624,125.348 652.5,127.5C 652.577,126.25 653.244,125.417 654.5,125C 659.277,124.393 663.61,122.727 667.5,120C 669.712,119.211 671.712,119.378 673.5,120.5 Z"/></g>
<g><path style="opacity:0.69" fill="#a33131" d="M 648.5,128.5 C 641.784,132.52 634.45,135.187 626.5,136.5C 627.23,135.288 628.23,134.288 629.5,133.5C 635.952,131.971 642.285,130.305 648.5,128.5 Z"/></g>
<g><path style="opacity:0.11" fill="#6f6f6f" d="M 297.5,131.5 C 297.068,132.71 296.401,133.71 295.5,134.5C 295.285,132.821 295.952,131.821 297.5,131.5 Z"/></g>
<g><path style="opacity:0.894" fill="#983834" d="M 599.5,127.5 C 595.094,129.368 590.761,131.534 586.5,134C 577.749,137.528 568.749,140.361 559.5,142.5C 564.941,139.732 570.607,137.232 576.5,135C 583.981,132.006 591.648,129.506 599.5,127.5 Z"/></g>
<g><path style="opacity:0.416" fill="#903b37" d="M 559.5,142.5 C 549.774,147.513 539.44,151.18 528.5,153.5C 537.394,150.828 546.06,147.328 554.5,143C 556.134,142.506 557.801,142.34 559.5,142.5 Z"/></g>
<g><path style="opacity:0.997" fill="#f6f6f5" d="M 471.5,308.5 C 471.25,306.326 470.25,304.659 468.5,303.5C 455.406,280.312 442.573,256.979 430,233.5C 429.202,231.741 429.369,230.074 430.5,228.5C 433.896,230.632 437.563,231.965 441.5,232.5C 442.287,234.104 443.62,234.771 445.5,234.5C 451.274,236.222 456.941,238.222 462.5,240.5C 464.181,242.008 466.181,243.008 468.5,243.5C 470.785,244.957 472.618,246.957 474,249.5C 483.806,267.77 493.306,286.103 502.5,304.5C 502.427,306.027 503.094,307.027 504.5,307.5C 515.304,327.884 526.304,348.218 537.5,368.5C 501.167,368.5 464.833,368.5 428.5,368.5C 423.487,358.473 418.487,348.473 413.5,338.5C 413.316,335.663 411.982,333.663 409.5,332.5C 397.482,309.129 385.482,285.796 373.5,262.5C 373.573,260.973 372.906,259.973 371.5,259.5C 360.306,238.281 348.973,217.114 337.5,196C 336.517,195.409 335.85,195.743 335.5,197C 332.776,203.622 329.443,209.789 325.5,215.5C 321.689,217.31 320.023,220.31 320.5,224.5C 295.639,270.899 270.306,316.899 244.5,362.5C 243.326,363.514 242.66,364.847 242.5,366.5C 242.5,367.167 242.5,367.833 242.5,368.5C 205.5,368.5 168.5,368.5 131.5,368.5C 144.356,344.625 157.356,320.792 170.5,297C 170.333,296.5 170.167,296 170,295.5C 155.351,301.236 140.518,306.57 125.5,311.5C 121.652,311.689 117.985,311.689 114.5,311.5C 114.436,312.365 114.103,313.365 113.5,314.5C 111.668,315.057 110.335,316.057 109.5,317.5C 85.9586,326.569 62.2919,335.235 38.5,343.5C 35.6067,343.031 33.6067,344.031 32.5,346.5C 23.8451,349.492 15.1784,352.492 6.5,355.5C 3.37157,351.575 1.03824,347.242 -0.5,342.5C -0.5,340.833 -0.5,339.167 -0.5,337.5C 70.4031,312.442 141.07,286.776 211.5,260.5C 215.764,260.523 219.431,259.19 222.5,256.5C 235.778,251.24 249.111,246.073 262.5,241C 264.473,240.505 266.473,240.338 268.5,240.5C 268.162,242.854 267.662,245.187 267,247.5C 263.721,252.44 260.888,257.606 258.5,263C 244.1,268.133 229.767,273.467 215.5,279C 214.667,279.833 213.833,280.667 213,281.5C 202.65,300.361 192.15,319.194 181.5,338C 196.167,338.667 210.833,338.667 225.5,338C 226.963,335.04 228.629,332.206 230.5,329.5C 232.346,327.97 233.346,325.97 233.5,323.5C 267.862,261.777 301.862,199.777 335.5,137.5C 336.167,137.167 336.833,136.833 337.5,136.5C 339.793,138.392 341.626,140.725 343,143.5C 377.012,208.32 411.512,272.987 446.5,337.5C 459.833,338.833 473.167,338.833 486.5,337.5C 481.492,327.829 476.492,318.162 471.5,308.5 Z"/></g>
<g><path style="opacity:1" fill="#b92d2d" d="M 626.5,136.5 C 619.45,140.85 611.783,143.85 603.5,145.5C 598.676,146.213 594.343,147.88 590.5,150.5C 586.935,152.116 583.269,153.449 579.5,154.5C 576.097,154.851 572.763,155.518 569.5,156.5C 570.574,154.716 572.24,153.549 574.5,153C 579.377,152.005 584.044,150.505 588.5,148.5C 586.833,146.833 587.167,145.833 589.5,145.5C 591.473,146.331 593.473,146.498 595.5,146C 595.167,145.667 594.833,145.333 594.5,145C 599.63,145.116 604.297,143.782 608.5,141C 614.453,139.309 620.453,137.809 626.5,136.5 Z"/></g>
<g><path style="opacity:0.184" fill="#782b26" d="M 603.5,145.5 C 599.466,147.737 595.132,149.404 590.5,150.5C 594.343,147.88 598.676,146.213 603.5,145.5 Z"/></g>
<g><path style="opacity:1" fill="#cb2524" d="M 676.5,115.5 C 676.5,116.833 676.5,118.167 676.5,119.5C 675.391,119.557 674.391,119.89 673.5,120.5C 671.712,119.378 669.712,119.211 667.5,120C 663.61,122.727 659.277,124.393 654.5,125C 653.244,125.417 652.577,126.25 652.5,127.5C 651.292,128.234 649.959,128.567 648.5,128.5C 642.285,130.305 635.952,131.971 629.5,133.5C 628.23,134.288 627.23,135.288 626.5,136.5C 620.453,137.809 614.453,139.309 608.5,141C 604.297,143.782 599.63,145.116 594.5,145C 594.833,145.333 595.167,145.667 595.5,146C 593.473,146.498 591.473,146.331 589.5,145.5C 587.167,145.833 586.833,146.833 588.5,148.5C 584.044,150.505 579.377,152.005 574.5,153C 572.24,153.549 570.574,154.716 569.5,156.5C 563.953,159.771 557.953,161.605 551.5,162C 548.517,163.635 545.851,165.468 543.5,167.5C 543.167,167.5 542.833,167.5 542.5,167.5C 539.834,167.933 537.168,168.433 534.5,169C 530.702,170.81 527.035,172.643 523.5,174.5C 519.038,176.148 514.371,177.314 509.5,178C 505.654,179.086 502.32,180.919 499.5,183.5C 494.894,184.791 490.227,185.958 485.5,187C 484.619,187.708 483.953,188.542 483.5,189.5C 478.625,189.369 474.625,191.036 471.5,194.5C 470.167,194.5 468.833,194.5 467.5,194.5C 452.163,194.667 436.83,194.5 421.5,194C 422.416,193.722 423.082,193.222 423.5,192.5C 427.695,189.746 432.362,188.079 437.5,187.5C 450.562,185.042 462.895,180.542 474.5,174C 486.226,170.203 497.892,166.203 509.5,162C 512.648,160.576 515.648,159.076 518.5,157.5C 521.555,155.59 524.889,154.257 528.5,153.5C 539.44,151.18 549.774,147.513 559.5,142.5C 568.749,140.361 577.749,137.528 586.5,134C 590.761,131.534 595.094,129.368 599.5,127.5C 604.653,126.595 609.653,125.095 614.5,123C 615.942,122.623 616.942,121.79 617.5,120.5C 618.568,119.566 619.901,119.232 621.5,119.5C 627.861,117.938 633.861,115.605 639.5,112.5C 641.199,112.66 642.866,112.494 644.5,112C 652.041,108.375 659.875,105.542 668,103.5C 669.107,103.585 670.107,103.919 671,104.5C 671.798,107.893 672.798,111.226 674,114.5C 674.671,115.252 675.504,115.586 676.5,115.5 Z"/></g>
<g><path style="opacity:1" fill="#a13130" d="M 579.5,154.5 C 567.869,159.601 555.869,163.935 543.5,167.5C 545.851,165.468 548.517,163.635 551.5,162C 557.953,161.605 563.953,159.771 569.5,156.5C 572.763,155.518 576.097,154.851 579.5,154.5 Z"/></g>
<g><path style="opacity:0.129" fill="#6f6f6b" d="M 427.5,165.5 C 428.906,165.973 429.573,166.973 429.5,168.5C 428.094,168.027 427.427,167.027 427.5,165.5 Z"/></g>
<g><path style="opacity:0.49" fill="#973634" d="M 518.5,157.5 C 515.648,159.076 512.648,160.576 509.5,162C 497.892,166.203 486.226,170.203 474.5,174C 462.895,180.542 450.562,185.042 437.5,187.5C 441.287,186.116 444.954,184.283 448.5,182C 471.953,174.104 495.286,165.937 518.5,157.5 Z"/></g>
<g><path style="opacity:0.612" fill="#96302e" d="M 542.5,167.5 C 541.942,168.79 540.942,169.623 539.5,170C 534.287,172.017 528.954,173.517 523.5,174.5C 527.035,172.643 530.702,170.81 534.5,169C 537.168,168.433 539.834,167.933 542.5,167.5 Z"/></g>
<g><path style="opacity:0.282" fill="#60605f" d="M 241.5,171.5 C 240.702,173.966 239.369,175.966 237.5,177.5C 237.929,174.853 239.262,172.853 241.5,171.5 Z"/></g>
<g><path style="opacity:0.89" fill="#a73636" d="M 523.5,174.5 C 522.013,175.804 520.346,176.97 518.5,178C 512.131,179.772 505.797,181.606 499.5,183.5C 502.32,180.919 505.654,179.086 509.5,178C 514.371,177.314 519.038,176.148 523.5,174.5 Z"/></g>
<g><path style="opacity:0.937" fill="#9f3231" d="M 499.5,183.5 C 498.942,184.79 497.942,185.623 496.5,186C 492.191,187.327 487.858,188.494 483.5,189.5C 483.953,188.542 484.619,187.708 485.5,187C 490.227,185.958 494.894,184.791 499.5,183.5 Z"/></g>
<g><path style="opacity:0.282" fill="#5a5a5a" d="M 231.5,188.5 C 231.715,190.179 231.048,191.179 229.5,191.5C 229.932,190.29 230.599,189.29 231.5,188.5 Z"/></g>
<g><path style="opacity:0.792" fill="#983e39" d="M 483.5,189.5 C 480.899,190.801 478.232,192.134 475.5,193.5C 474.292,194.234 472.959,194.567 471.5,194.5C 474.625,191.036 478.625,189.369 483.5,189.5 Z"/></g>
<g><path style="opacity:1" fill="#8e412b" d="M 423.5,192.5 C 423.082,193.222 422.416,193.722 421.5,194C 436.83,194.5 452.163,194.667 467.5,194.5C 451.342,195.496 435.009,195.83 418.5,195.5C 417.167,195.5 415.833,195.5 414.5,195.5C 417.215,193.928 420.215,192.928 423.5,192.5 Z"/></g>
<g><path style="opacity:1" fill="#4e7046" d="M 475.5,193.5 C 487.989,194.495 500.656,194.829 513.5,194.5C 510.674,195.343 507.674,196.009 504.5,196.5C 494.52,195.581 484.52,195.581 474.5,196.5C 455.659,196.83 436.993,196.497 418.5,195.5C 435.009,195.83 451.342,195.496 467.5,194.5C 468.833,194.5 470.167,194.5 471.5,194.5C 472.959,194.567 474.292,194.234 475.5,193.5 Z"/></g>
<g><path style="opacity:0.804" fill="#396f48" d="M 413.5,195.5 C 407.974,199.752 401.64,202.086 394.5,202.5C 400.658,199.931 406.992,197.598 413.5,195.5 Z"/></g>
<g><path style="opacity:1" fill="#2b954b" d="M 413.5,195.5 C 413.833,195.5 414.167,195.5 414.5,195.5C 415.833,195.5 417.167,195.5 418.5,195.5C 436.993,196.497 455.659,196.83 474.5,196.5C 475.134,197.947 476.301,198.613 478,198.5C 497.137,197.395 515.304,197.395 532.5,198.5C 534.39,198.869 535.224,199.869 535,201.5C 531.519,200.477 527.352,200.477 522.5,201.5C 522.36,203.124 523.027,204.29 524.5,205C 521.57,206.659 518.57,206.992 515.5,206C 512.922,208.157 512.922,209.323 515.5,209.5C 512.998,210.792 510.331,211.459 507.5,211.5C 504.753,210.781 502.086,210.781 499.5,211.5C 498.086,210.376 496.586,209.376 495,208.5C 490.656,209.931 486.156,210.598 481.5,210.5C 469.534,210.286 457.534,210.12 445.5,210C 444.601,208.764 443.434,207.93 442,207.5C 437.145,208.944 432.311,209.944 427.5,210.5C 420.159,210.666 412.826,210.5 405.5,210C 402.819,209.542 400.319,208.709 398,207.5C 396.93,207.528 396.097,207.861 395.5,208.5C 394.833,208.5 394.5,208.167 394.5,207.5C 393.167,205.833 393.167,204.167 394.5,202.5C 401.64,202.086 407.974,199.752 413.5,195.5 Z"/></g>
<g><path style="opacity:0.776" fill="#477457" d="M 394.5,202.5 C 393.167,204.167 393.167,205.833 394.5,207.5C 391.516,207.213 390.183,205.546 390.5,202.5C 391.833,202.5 393.167,202.5 394.5,202.5 Z"/></g>
<g><path style="opacity:1" fill="#2f924e" d="M 513.5,194.5 C 514.833,194.5 516.167,194.5 517.5,194.5C 518.263,195.268 519.263,195.768 520.5,196C 534.163,196.5 547.829,196.667 561.5,196.5C 555.631,197.205 549.631,197.871 543.5,198.5C 542.373,200.269 542.873,201.603 545,202.5C 546.751,201.826 548.417,201.493 550,201.5C 551.967,202.731 551.801,203.731 549.5,204.5C 546.515,204.045 543.682,204.045 541,204.5C 540.333,207.167 539.667,207.167 539,204.5C 535.667,205.833 532.333,205.833 529,204.5C 528.308,205.025 527.808,205.692 527.5,206.5C 535.267,206.727 535.934,208.227 529.5,211C 540.158,210.97 550.825,210.637 561.5,210C 562.047,209.075 562.713,208.242 563.5,207.5C 564.72,208.711 565.887,208.711 567,207.5C 567.5,208.5 568,209.5 568.5,210.5C 581.179,211.728 593.846,211.561 606.5,210C 604.616,209.784 602.949,209.117 601.5,208C 602.672,207.647 603.838,207.813 605,208.5C 607.208,206.814 609.708,205.814 612.5,205.5C 617.149,206.15 621.816,206.65 626.5,207C 628.032,207.7 629.032,208.866 629.5,210.5C 637.49,211.336 645.49,211.169 653.5,210C 645.511,208.181 645.511,207.348 653.5,207.5C 654.949,208.28 656.449,208.946 658,209.5C 660.234,208.003 662.734,206.837 665.5,206C 666.833,205.333 666.833,204.667 665.5,204C 660.699,203.35 656.032,203.85 651.5,205.5C 649.68,205.351 648.18,204.684 647,203.5C 643.935,204.411 641.102,204.411 638.5,203.5C 634.825,203.997 631.325,204.997 628,206.5C 623.212,205.618 622.545,203.618 626,200.5C 631.877,200.614 638.21,201.281 645,202.5C 650.084,202.093 655.084,201.427 660,200.5C 661.868,201.665 663.702,201.332 665.5,199.5C 664.667,199.167 663.833,198.833 663,198.5C 648.682,197.875 634.515,197.208 620.5,196.5C 638.833,196.5 657.167,196.5 675.5,196.5C 676.081,201.975 675.414,207.142 673.5,212C 625.144,212.176 576.811,212.676 528.5,213.5C 508.527,212.523 488.527,212.19 468.5,212.5C 455.007,211.454 441.341,210.787 427.5,210.5C 432.311,209.944 437.145,208.944 442,207.5C 443.434,207.93 444.601,208.764 445.5,210C 457.534,210.12 469.534,210.286 481.5,210.5C 486.156,210.598 490.656,209.931 495,208.5C 496.586,209.376 498.086,210.376 499.5,211.5C 502.086,210.781 504.753,210.781 507.5,211.5C 510.331,211.459 512.998,210.792 515.5,209.5C 512.922,209.323 512.922,208.157 515.5,206C 518.57,206.992 521.57,206.659 524.5,205C 523.027,204.29 522.36,203.124 522.5,201.5C 527.352,200.477 531.519,200.477 535,201.5C 535.224,199.869 534.39,198.869 532.5,198.5C 515.304,197.395 497.137,197.395 478,198.5C 476.301,198.613 475.134,197.947 474.5,196.5C 484.52,195.581 494.52,195.581 504.5,196.5C 507.674,196.009 510.674,195.343 513.5,194.5 Z"/></g>
<g><path style="opacity:1" fill="#2b954c" d="M 561.5,196.5 C 581.167,196.5 600.833,196.5 620.5,196.5C 634.515,197.208 648.682,197.875 663,198.5C 663.833,198.833 664.667,199.167 665.5,199.5C 663.702,201.332 661.868,201.665 660,200.5C 655.084,201.427 650.084,202.093 645,202.5C 638.21,201.281 631.877,200.614 626,200.5C 622.545,203.618 623.212,205.618 628,206.5C 631.325,204.997 634.825,203.997 638.5,203.5C 641.102,204.411 643.935,204.411 647,203.5C 648.18,204.684 649.68,205.351 651.5,205.5C 656.032,203.85 660.699,203.35 665.5,204C 666.833,204.667 666.833,205.333 665.5,206C 662.734,206.837 660.234,208.003 658,209.5C 656.449,208.946 654.949,208.28 653.5,207.5C 645.511,207.348 645.511,208.181 653.5,210C 645.49,211.169 637.49,211.336 629.5,210.5C 629.032,208.866 628.032,207.7 626.5,207C 621.816,206.65 617.149,206.15 612.5,205.5C 609.708,205.814 607.208,206.814 605,208.5C 603.838,207.813 602.672,207.647 601.5,208C 602.949,209.117 604.616,209.784 606.5,210C 593.846,211.561 581.179,211.728 568.5,210.5C 568,209.5 567.5,208.5 567,207.5C 565.887,208.711 564.72,208.711 563.5,207.5C 562.713,208.242 562.047,209.075 561.5,210C 550.825,210.637 540.158,210.97 529.5,211C 535.934,208.227 535.267,206.727 527.5,206.5C 527.808,205.692 528.308,205.025 529,204.5C 532.333,205.833 535.667,205.833 539,204.5C 539.667,207.167 540.333,207.167 541,204.5C 543.682,204.045 546.515,204.045 549.5,204.5C 551.801,203.731 551.967,202.731 550,201.5C 548.417,201.493 546.751,201.826 545,202.5C 542.873,201.603 542.373,200.269 543.5,198.5C 549.631,197.871 555.631,197.205 561.5,196.5 Z"/></g>
<g><path style="opacity:1" fill="#328a57" d="M 395.5,208.5 C 396.097,207.861 396.93,207.528 398,207.5C 400.319,208.709 402.819,209.542 405.5,210C 412.826,210.5 420.159,210.666 427.5,210.5C 441.341,210.787 455.007,211.454 468.5,212.5C 451.325,212.17 434.325,212.503 417.5,213.5C 415.5,213.5 413.5,213.5 411.5,213.5C 406.318,211.535 400.985,209.868 395.5,208.5 Z"/></g>
<g><path style="opacity:1" fill="#36715d" d="M 417.5,213.5 C 434.325,212.503 451.325,212.17 468.5,212.5C 483.167,213.167 497.833,213.833 512.5,214.5C 498.323,214.171 484.323,214.504 470.5,215.5C 470.167,215.5 469.833,215.5 469.5,215.5C 468.737,214.732 467.737,214.232 466.5,214C 450.17,213.5 433.837,213.333 417.5,213.5 Z"/></g>
<g><path style="opacity:0.573" fill="#3d7a4f" d="M 517.5,194.5 C 570.5,194.5 623.5,194.5 676.5,194.5C 676.5,201.167 676.5,207.833 676.5,214.5C 622.025,213.532 567.358,213.532 512.5,214.5C 497.833,213.833 483.167,213.167 468.5,212.5C 488.527,212.19 508.527,212.523 528.5,213.5C 576.811,212.676 625.144,212.176 673.5,212C 675.414,207.142 676.081,201.975 675.5,196.5C 657.167,196.5 638.833,196.5 620.5,196.5C 600.833,196.5 581.167,196.5 561.5,196.5C 547.829,196.667 534.163,196.5 520.5,196C 519.263,195.768 518.263,195.268 517.5,194.5 Z"/></g>
<g><path style="opacity:1" fill="#2a5c78" d="M 411.5,213.5 C 413.5,213.5 415.5,213.5 417.5,213.5C 433.837,213.333 450.17,213.5 466.5,214C 467.737,214.232 468.737,214.732 469.5,215.5C 460.354,214.908 451.187,214.574 442,214.5C 434.136,214.503 426.636,215.169 419.5,216.5C 416.743,215.488 414.076,214.488 411.5,213.5 Z"/></g>
<g><path style="opacity:0.314" fill="#384b70" d="M 473.5,216.5 C 494.213,223.035 514.546,230.368 534.5,238.5C 525.523,236.017 516.523,233.517 507.5,231C 506.449,229.615 505.116,228.615 503.5,228C 494.356,224.396 485.022,221.396 475.5,219C 474.619,218.292 473.953,217.458 473.5,216.5 Z"/></g>
<g><path style="opacity:0.864" fill="#ababa9" d="M 325.5,215.5 C 324.083,218.669 322.417,221.669 320.5,224.5C 320.023,220.31 321.689,217.31 325.5,215.5 Z"/></g>
<g><path style="opacity:0.063" fill="#595959" d="M 245.5,224.5 C 245.068,225.71 244.401,226.71 243.5,227.5C 243.285,225.821 243.952,224.821 245.5,224.5 Z"/></g>
<g><path style="opacity:0.118" fill="#454e41" d="M 441.5,232.5 C 443.153,232.66 444.486,233.326 445.5,234.5C 443.62,234.771 442.287,234.104 441.5,232.5 Z"/></g>
<g><path style="opacity:1" fill="#31518d" d="M 469.5,215.5 C 469.833,215.5 470.167,215.5 470.5,215.5C 471.791,215.263 472.791,215.596 473.5,216.5C 473.953,217.458 474.619,218.292 475.5,219C 485.022,221.396 494.356,224.396 503.5,228C 505.116,228.615 506.449,229.615 507.5,231C 516.523,233.517 525.523,236.017 534.5,238.5C 582.032,255.233 629.365,272.567 676.5,290.5C 676.5,292.5 676.5,294.5 676.5,296.5C 674.323,299.52 672.657,302.853 671.5,306.5C 668.189,304.413 664.522,302.913 660.5,302C 660.957,301.586 661.291,301.086 661.5,300.5C 659.168,297.157 656.168,295.824 652.5,296.5C 655.362,297.306 655.862,298.639 654,300.5C 646.574,298.372 639.408,295.539 632.5,292C 630.68,291.021 629.513,289.521 629,287.5C 628.311,288.357 627.478,289.023 626.5,289.5C 618.618,287.483 610.951,284.983 603.5,282C 601.934,281.235 600.601,281.402 599.5,282.5C 539.517,260.181 479.517,238.181 419.5,216.5C 426.636,215.169 434.136,214.503 442,214.5C 451.187,214.574 460.354,214.908 469.5,215.5 Z"/></g>
<g><path style="opacity:0.149" fill="#5a5a57" d="M 237.5,238.5 C 237.068,239.71 236.401,240.71 235.5,241.5C 235.285,239.821 235.952,238.821 237.5,238.5 Z"/></g>
<g><path style="opacity:0.067" fill="#646462" d="M 462.5,240.5 C 465.089,240.461 467.089,241.461 468.5,243.5C 466.181,243.008 464.181,242.008 462.5,240.5 Z"/></g>
<g><path style="opacity:0.263" fill="#a3a3a0" d="M 222.5,256.5 C 219.431,259.19 215.764,260.523 211.5,260.5C 214.992,258.931 218.659,257.598 222.5,256.5 Z"/></g>
<g><path style="opacity:0.012" fill="#6e6e6e" d="M 371.5,259.5 C 372.906,259.973 373.573,260.973 373.5,262.5C 372.094,262.027 371.427,261.027 371.5,259.5 Z"/></g>
<g><path style="opacity:1" fill="#364d7b" d="M 599.5,282.5 C 600.601,281.402 601.934,281.235 603.5,282C 610.951,284.983 618.618,287.483 626.5,289.5C 627.478,289.023 628.311,288.357 629,287.5C 629.513,289.521 630.68,291.021 632.5,292C 639.408,295.539 646.574,298.372 654,300.5C 655.862,298.639 655.362,297.306 652.5,296.5C 656.168,295.824 659.168,297.157 661.5,300.5C 661.291,301.086 660.957,301.586 660.5,302C 664.522,302.913 668.189,304.413 671.5,306.5C 671.134,307.695 670.301,308.361 669,308.5C 645.998,299.553 622.831,290.886 599.5,282.5 Z"/></g>
<g><path style="opacity:0.122" fill="#626262" d="M 468.5,303.5 C 470.25,304.659 471.25,306.326 471.5,308.5C 469.75,307.341 468.75,305.674 468.5,303.5 Z"/></g>
<g><path style="opacity:0.065" fill="#6c6c6c" d="M 502.5,304.5 C 503.906,304.973 504.573,305.973 504.5,307.5C 503.094,307.027 502.427,306.027 502.5,304.5 Z"/></g>
<g><path style="opacity:0.784" fill="#c3c3c2" d="M 125.5,311.5 C 120.487,314.064 115.154,316.064 109.5,317.5C 110.335,316.057 111.668,315.057 113.5,314.5C 114.103,313.365 114.436,312.365 114.5,311.5C 117.985,311.689 121.652,311.689 125.5,311.5 Z"/></g>
<g><path style="opacity:0.2" fill="#7f7f7f" d="M 233.5,323.5 C 233.346,325.97 232.346,327.97 230.5,329.5C 230.654,327.03 231.654,325.03 233.5,323.5 Z"/></g>
<g><path style="opacity:0.478" fill="#8a8c82" d="M 409.5,332.5 C 411.982,333.663 413.316,335.663 413.5,338.5C 411.808,336.795 410.475,334.795 409.5,332.5 Z"/></g>
<g><path style="opacity:0.227" fill="#61615f" d="M 38.5,343.5 C 36.5739,344.486 34.5739,345.486 32.5,346.5C 33.6067,344.031 35.6067,343.031 38.5,343.5 Z"/></g>
<g><path style="opacity:0.086" fill="#666666" d="M 244.5,362.5 C 244.771,364.38 244.104,365.713 242.5,366.5C 242.66,364.847 243.326,363.514 244.5,362.5 Z"/></g>
</svg>
